<?xml version="1.0" encoding="utf-8"?>
<!-- Generator: Adobe Illustrator 27.7.0, SVG Export Plug-In . SVG Version: 6.00 Build 0)  -->
<svg version="1.1" id="Layer_1" xmlns="http://www.w3.org/2000/svg" xmlns:xlink="http://www.w3.org/1999/xlink" x="0px" y="0px"
	 viewBox="0 0 1920 1080" style="enable-background:new 0 0 1920 1080;" xml:space="preserve">
<style type="text/css">
	.st0{fill:#009245;}
	.st1{fill:#39B54A;}
	.st2{fill:#006837;}
	.st3{stroke:#000000;stroke-width:3;stroke-miterlimit:10;}
</style>
<g>
	<path class="st0" d="M951.87,691.21c-84.69-30.52-135.5-125.45-125.13-213.61c3.76-38.2,17.79-75.48,40.23-106.66
		c35.65-50.23,92.75-84.25,154.06-90.84c127.85-14.4,240.85,86.56,239.06,214.89c-0.33,14.07-2.06,28.27-5.28,41.97
		c-4.57,19.8-12.21,38.67-22.73,55.35c6.46-28.61,7.88-56.61,3.97-85.07c-8.74-61.54-44.72-117.54-99.52-147.46
		c-36.4-20.04-79.88-26.9-120.58-18.48c-74.95,14.68-133.23,80.37-143.37,156.25C861.43,570.42,894.08,645.45,951.87,691.21
		L951.87,691.21z"/>
</g>
<g>
	<path class="st1" d="M957.93,715.19c-103.09-14.12-185.04-105.73-199.92-207.45c-2.98-19.89-4.17-40.31-2.67-60.37
		c2.19-33.98,11.1-67.6,25.78-98.33c1.13-2.53,3.31-6.68,4.61-9.19c4.46-8.77,10.34-18.27,15.83-26.5c1.45-2.37,4.31-6.11,5.94-8.42
		c4.04-5.52,8.41-10.97,12.79-16.19c2.63-2.8,7.77-8.94,10.4-11.49c5.92-6.15,12.34-12.19,18.72-17.81
		c2.99-2.38,9.06-7.71,12.02-9.82c3.9-2.91,8.55-6.46,12.59-9.1c5.74-3.99,13.65-8.85,19.74-12.42
		c14.21-7.83,29.47-15.03,44.87-20.22c11.13-3.95,23.4-7.22,34.94-9.66c4.76-0.82,10.54-1.98,15.29-2.64
		c1.96-0.25,11.07-1.4,12.81-1.61c12.81-1.06,25.76-1.6,38.6-0.97c34.16,1.38,68.07,9.6,99.2,23.63c4.61,2.17,9.18,4.41,13.71,6.72
		c3.15,1.76,7.97,4.37,11.11,6.15c2.06,1.21,8.71,5.47,10.74,6.71c15.32,10.04,29.89,21.95,42.84,34.91c2.4,2.57,6.2,6.47,8.6,9.06
		c5.72,6.48,12.13,14.31,17.24,21.24c1.95,2.88,5.1,7.29,7.04,10.19c1.84,2.8,4.87,7.9,6.53,10.48c4.88,8.43,9.53,17.28,13.47,26.2
		c25.55,57.13,29.04,126.09,4.89,183.91c0.7-27.24-1.93-53.06-8.25-78.46c-3.44-13.49-7.89-27.24-13.48-39.96
		c-11.15-26.14-27.15-50.64-46.59-71.29c-6.19-6.54-13.26-13.31-20.19-19.1c-2.69-2.35-6.41-5.15-9.2-7.42
		c-5.4-4.09-12-8.53-17.72-12.23c-2.4-1.39-5.98-3.54-8.38-4.96c-25.54-14.39-53.9-24.13-83-27.63c-7.19-0.96-15.32-1.55-22.58-1.67
		c0,0-3.77-0.11-3.77-0.11l-3.77,0.1c-12.45,0.03-25.14,1.41-37.41,3.54c-67,12.01-125.31,56.19-156.22,117.07
		c-1.66,3.4-3.28,6.83-4.9,10.25c-0.95,2.36-2.71,6.35-3.71,8.73c-2.36,6.09-4.89,13.55-6.84,19.79
		c-5.25,18.46-8.54,37.63-9.08,56.9C816.19,581.29,873.96,670.52,957.93,715.19L957.93,715.19z"/>
</g>
<g>
	<path class="st2" d="M997.54,678.84c-88.35-17.1-136.8-113.75-116.43-198.27c11.98-53.57,50.06-100.46,100.37-122.73
		c50.67-23.08,109.09-18.26,158.12,7.12c49.07,25.26,80.3,74.34,81.4,129.38c0.58,25.14-3.61,49.13-12.6,72.11
		c-3.09,7.44-6.67,14.59-11,21.21c1.04-7.84,1.82-15.53,2.01-23.17c1.09-48.23-10.42-101.71-49.35-132.75
		c-28.81-23.17-71.21-33.76-108.54-29.3c-37.31,4.91-70.85,26.63-92.16,57.99c-14.61,21.42-23.12,46.85-25.05,72.72
		C919.63,590.62,949.36,646.93,997.54,678.84L997.54,678.84z"/>
</g>
<g>
	<g>
		<path class="st0" d="M618.3,151l-80.24,42.24v84.34l68.49,36.04l11.75,6.19l12.01-6.32l68.23-35.91v-84.34L618.3,151z
			 M685.38,270.78l-60.5,31.85l-6.58,3.46l-6.58-3.46l-60.5-31.85v-70.75l6.45-3.4l60.63-31.91l60.63,31.91l6.45,3.4V270.78z"/>
		<polygon class="st1" points="611.72,238.8 611.72,302.63 551.22,270.78 551.22,206.96 		"/>
		<polygon class="st1" points="678.93,196.63 618.3,228.55 557.67,196.63 618.3,164.72 		"/>
		<polygon class="st0" points="685.38,206.96 685.38,270.78 624.88,302.63 624.88,238.8 		"/>
	</g>
	<g>
		<polygon class="st0" points="695.28,201.75 685.38,206.96 624.88,238.8 618.3,242.27 611.72,238.8 551.22,206.96 541.31,201.75 
			547.96,191.52 557.67,196.63 618.3,228.55 678.93,196.63 688.64,191.52 		"/>
	</g>
	<g>
		<rect x="611.72" y="235.41" class="st0" width="13.16" height="77.54"/>
	</g>
	<g>
		<path class="st0" d="M630.31,313.49l-5.44-2.87l-6.31-3.32l-6.84,3.6l-5.17,2.72l-68.22,35.91v84.34l5.12,2.69l7.71,4.06
			l54.78,28.84l7.87,4.14l4.75,2.5l4.75-2.5l7.87-4.14l54.13-28.49l7.87-4.14l5.29-2.78l0.32-0.17v-84.34L630.31,313.49z
			 M551.48,356.33l6.45-3.4l60.63-31.91l60.63,31.92l6.45,3.39v70.75l-10.76,5.66l-49.75,26.19l-6.58,3.47l-6.58-3.47l-50.07-26.35
			l-10.44-5.49V356.33z"/>
		<polygon class="st0" points="685.65,363.26 685.65,427.08 674.89,432.74 625.14,458.93 625.14,395.1 627.3,393.97 		"/>
	</g>
	<g>
		<polygon class="st0" points="695.55,358.05 685.65,363.26 627.3,393.97 625.14,395.1 618.56,398.57 611.99,395.1 609.5,393.8 
			551.48,363.26 541.59,358.05 548.22,347.82 557.93,352.93 618.56,384.85 679.19,352.94 688.91,347.82 		"/>
	</g>
	<g>
		<rect x="611.99" y="391.71" class="st0" width="13.15" height="77.55"/>
	</g>
	<g>
		<g>
			<path class="st0" d="M631.19,469.47l-6.05-3.18l-3.01-1.59l-3.57-1.88l-3.89,2.05l-2.68,1.41l-6.05,3.18l-4.31,2.27l10.03,5.27
				v3.17l3.01-1.58l3.89-2.05l3.57,1.88l2.68,1.41v-2.83l10.35-5.45L631.19,469.47z M698.48,504.88l-13.15-6.92v7.27l-6.13,3.23
				l3.57,1.88l2.89,1.52v70.75l-6.29,3.31l-54.22,28.54l-6.58,3.47l-6.58-3.47l-54.22-28.54l-6.29-3.31v-70.75l2.56-1.35l3.89-2.05
				l-6.78-3.57v-6.58l-12.83,6.75v84.34l13.15,6.92l60.51,31.85l6.58,3.47l6.58-3.47l60.51-31.85l13.15-6.92v-84.34L698.48,504.88z"
				/>
			<polygon class="st0" points="611.66,477.01 611.66,480.17 557.93,508.45 551.15,504.88 551.15,498.31 601.63,471.73 			"/>
		</g>
		<g>
			<polygon class="st0" points="695.55,513.57 685.65,518.78 631.77,547.14 625.14,550.62 624.81,550.8 624.13,551.16 618.74,554 
				618.56,554.09 618.4,553.99 618.39,553.99 613,551.16 611.99,550.62 611.66,550.46 605.36,547.13 611.66,543.82 611.66,540.83 
				554.04,510.5 551.48,511.85 551.48,518.78 541.59,513.57 548.22,503.34 551.15,504.88 557.93,508.45 611.66,536.74 
				618.39,540.27 618.4,540.27 618.56,540.37 618.74,540.28 624.81,537.08 679.19,508.46 685.32,505.23 688.91,503.34 			"/>
		</g>
		<g>
			<rect x="611.99" y="547.23" class="st0" width="13.15" height="77.55"/>
		</g>
	</g>
	<g>
		<g>
			<path class="st0" d="M685.65,575.5v6.92l-6.45,3.4l0.17,0.09l6.29,3.31v70.75l-60.51,31.85l-6.58,3.47l-6.58-3.47l-60.51-31.85
				v-70.75l6.29-3.31l0.17-0.09l-6.45-3.39v-6.92l-13.15,6.92v84.34L618.56,709l80.24-42.24v-84.34L685.65,575.5z M611.99,557.37
				l2.51-1.33l3.89-2.05h0.01l0.17-0.09l0.18,0.09l3.57,1.88l2.83,1.49v-2.98l10.2-5.37l-3.57-1.88l-6.95-3.66l-2.51-1.32
				l-3.57-1.88l-0.18-0.09l-0.17,0.09h-0.01l-3.89,2.05l-2.83,1.49l-6.3,3.32l-3.89,2.05l10.52,5.54V557.37z"/>
			<polygon class="st0" points="611.99,554.73 611.99,557.37 557.93,585.82 551.48,582.42 551.48,575.5 601.46,549.19 			"/>
		</g>
		<g>
			<polygon class="st0" points="695.55,590.93 685.65,596.14 625.14,627.99 618.56,631.45 611.99,627.99 551.48,596.14 
				541.59,590.93 548.22,580.71 551.48,582.42 557.93,585.82 611.99,614.27 618.56,617.73 625.14,614.28 679.19,585.82 
				685.65,582.42 688.91,580.71 			"/>
		</g>
		<g>
			<polygon class="st0" points="685.65,596.32 685.65,659.97 625.14,691.81 625.14,628.17 			"/>
			<rect x="611.99" y="624.59" class="st0" width="13.15" height="77.55"/>
		</g>
	</g>
	<g>
		<path class="st0" d="M618.56,398.57l-6.58-3.47v11.12l6.25-3.29l6.9,3.63V395.1L618.56,398.57z M685.65,424.69v2.39l-10.76,5.66
			l3.98,2.09l6.45,3.4v70.75l-2.56,1.35l-57.95,30.5l-2.51,1.33l-4.07,2.14l-3.74-1.97l-2.83-1.49v2.98l-6.3,3.32l-53.88-28.36
			v-6.92l2.56-1.35l-2.89-1.52v-70.75l6.45-3.39l4.31-2.27l-10.44-5.49v-2.74l-13.15,6.92l-0.32,0.17v84.34l0.32,0.17l13.15,6.92
			l49.98,26.3l10.52,5.54l2.51,1.32l3.74,1.97l4.07-2.14l2.83-1.49l10.2-5.37l50.31-26.49l12.83-6.75v-84.34L685.65,424.69z
			 M625.14,406.56V395.1l-6.58,3.47l-6.58-3.47v11.12l6.25-3.29L625.14,406.56z M625.14,392.84l-2.15-1.13l-4.75-2.5l-4.75,2.5
			l-1.5,0.79l-2.48,1.3l2.48,1.3v11.12l6.25-3.29l6.9,3.63V395.1l2.16-1.13L625.14,392.84z"/>
		<polygon class="st0" points="611.99,395.1 611.99,406.22 561.91,432.58 551.48,427.08 551.48,424.34 609.5,393.8 		"/>
		<polygon class="st0" points="611.66,540.83 611.66,543.82 605.36,547.13 551.48,518.78 551.48,511.85 554.04,510.5 		"/>
		<polygon class="st0" points="685.65,522.53 685.65,582.42 679.19,585.82 625.14,614.28 625.14,554.39 635.34,549.02 		"/>
	</g>
	<g>
		<polygon class="st0" points="695.21,439.95 685.32,445.16 635.16,471.56 624.81,477.01 622.13,478.42 618.24,480.47 
			614.67,478.59 611.66,477.01 601.63,471.73 551.15,445.16 541.25,439.95 543.45,436.57 547.89,429.73 557.61,434.84 
			611.99,463.46 614.67,464.87 618.24,466.75 622.13,464.7 625.14,463.12 678.87,434.84 688.58,429.73 693.19,436.83 		"/>
	</g>
	<g>
		<polygon class="st0" points="685.32,445.16 685.32,505.23 679.19,508.46 624.81,537.08 624.81,477.01 635.16,471.56 		"/>
		<rect x="611.66" y="473.61" class="st0" width="13.15" height="77.55"/>
	</g>
</g>
<g>
	<g>
		<path class="st3" d="M1043.93,533.47c6.2-9.86,7.97-21.42,5.55-32.71c-2.75-12.84-8.39-14.68-12.65-11.44
			c-9.06,6.88-8.36,22.85-8.76,33.21c-0.54,13.87,2.4,36.01-8.53,46.79c-14.79,14.58-25.47-22.01-27.18-29.67
			c-2.58-11.52-2.65-24.33-2.03-36.54c2.32-3.42,8.17-9.88,12.89-14.33c0.51,2.61,0.78,3.9,1.34,6.45
			c-8.89,13.51-11.38,30.2-8.16,45.99c3.12,15.29,10.4,20.02,15.51,15.02c8.62-8.44,7.02-24.78,7.6-36.13
			c0.71-13.9,1.28-37.15,13.06-44.19c11.12-6.64,18.81,18.18,20.7,26.02c2.13,8.82,4.23,20.25,3.72,22.23
			c-0.65,2.53-6,7.29-11.01,13.82C1045.14,536.21,1044.73,535.31,1043.93,533.47z"/>
		<path class="st3" d="M1043.74,558.93c3.41,6.73,8.23,12.87,12.97,17.42c-1.85,2.27-4.31,5.31-6.16,7.58
			c0.37,0.24,9.95,6.68,10.41,7c2.85,1.83,5.1,3.73,6.13,5.32c7.4,11.34,10.31,28.68,3.13,41.01c-10.74,18.44-33.86,9.32-43.62-4.78
			c-2.7-4.74-4.37-9.98-4.94-13.01c-4.16,5.12-6.24,7.67-10.4,12.79c-5.7,7.01-5.72,9.36,1.49,22.62c-0.83,1.11-1.25,1.67-2.08,2.78
			c-8.46-13.56-15.37-28.1-21.26-42.94c0.91-0.96,1.37-1.44,2.28-2.41c5.56,12.13,6.84,12.85,12.16,6.8
			c12.04-13.69,24.09-27.39,36.13-41.08c4.76-5.42,4.76-5.89,1.57-16.76C1042.42,560.33,1042.86,559.86,1043.74,558.93z
			 M1027.05,612.82c0.14,5.84,2.65,13.59,5.42,18.43c6.44,11.27,20.17,11.16,26.83,0.31c6.06-9.86,6.03-24.53,0.06-34.44
			c-2.73-4.53-7.8-8.08-11.36-10.08C1041.02,595.64,1034.03,604.23,1027.05,612.82z"/>
		<path class="st3" d="M1113.57,695.82c-8.52,4.33-18.99,4.82-27-0.02c-13.63-8.23-19.38-28.94-11.2-43.33
			c4.27-7.51,10.79-12.27,17.65-13.77c7.18-1.58,14.6-0.44,20.29,3.18c9.21,5.86,14.28,18.3,10.51,28.28
			c-0.88,2.34-1.98,3.46-4.03,2.94c-11.61-2.93-30.77-18.34-32.91-17.79c-3.36,0.86-4.03,27.56,7.78,34.97
			c5.12,3.21,11.3,3.71,17.82,1.77C1112.9,693.56,1113.12,694.31,1113.57,695.82z M1108.61,644.71c-5.13-3.36-12.37-2.08-18.66,6.07
			c6.23,5,13,9.36,20,13.1c2.15,1.14,3.14,0.96,3.9-0.83C1116.51,656.72,1114.86,648.8,1108.61,644.71z"/>
		<path class="st3" d="M1179.19,707.42c-6.7,6.87-19.17,12.46-28.79,11.62c-16.24-1.42-25.55-18.32-21.25-33.06
			c2.63-9.04,12.58-17.47,20.88-20.61c8.07-3.06,16.38-4.42,21.43-3.97c5.83,0.52,9.84,2.4,11.53,3.94
			c1.52,1.39,1.73,2.25,1.48,3.64c-0.55,3.03-4.46,5.7-5.97,5.68c-0.68-0.01-1.19-0.27-2.34-1.33c-3.49-3.68-7.6-5.84-12.28-6.43
			c-10.66-1.35-19.2,7.18-21.97,16.9c-3.56,12.49,2.31,25.44,15.43,27.09c6.11,0.77,11.84-0.52,19.78-6.18
			C1177.94,705.8,1178.35,706.34,1179.19,707.42z"/>
		<path class="st3" d="M1218.54,712.25c-2.82,1.86-5.46,2.99-7.07,3.37c-10.36,2.43-15.17-1.9-13.91-11.92
			c1.53-12.15,3.06-24.31,4.59-36.46c-3.8,0.52-5.7,0.72-9.46,0.99c-0.12-0.59-0.19-0.88-0.31-1.47c1.7-1.56,2.54-2.35,4.2-3.94
			c2.48-0.23,3.72-0.37,6.22-0.71c0.53-4.21,0.79-6.31,1.32-10.52c2.8-2.84,6.93-6.71,9.61-9.67c0.76-0.05,1.14-0.08,1.9-0.14
			c-0.73,5.27-1.53,12.51-2.08,18.48c6.24-1.3,9.37-2.12,15.66-4.1c1.19,0.83,0.68,3.66-1.05,5.28c-6.06,1.87-9.08,2.66-15.08,3.92
			c-0.98,10.61-1.95,21.22-2.93,31.82c-0.93,10.07,3.97,10.81,8.11,9.7c3.82-1.03,7.54-3.27,9.8-4.85c0.52,1.09,0.78,1.63,1.32,2.7
			C1225.09,707.85,1222.92,709.36,1218.54,712.25z"/>
		<path class="st3" d="M1272.51,689.16c-12.15,6.8-24.35,13.06-37.43,17.9c0.03-1.36,0.04-2.04,0.07-3.4
			c10.16-4.46,11.11-5.77,11.01-13.54c-0.12-9.95-0.18-14.92-0.3-24.87c-0.09-7.89-0.7-7.77-8.87-5.61
			c0.02-1.21,0.03-1.82,0.05-3.03c6.87-3.49,13.15-7.68,19.51-13.39c0.19,3.87,0.44,9.03,0.64,12.9
			c3.83-7.79,9.59-17.62,16.89-22.41c4.92-3.22,8.33-2.68,8.73,0.09c0.37,2.55-1.55,6.54-3.98,9.35c-1.34,1.61-2.51,2.23-3.74,2.15
			c-2.34-0.35-4.14-0.46-6.7,1.02c-2.98,1.73-7.96,8.17-10.89,15.78c0.43,8.82,0.65,13.23,1.09,22.05c0.38,7.74,1.2,8.4,13.66,1.78
			C1272.33,687.23,1272.39,687.88,1272.51,689.16z"/>
		<path class="st3" d="M1346.54,628.66c-2.31,2.57-6.06,5.46-7.9,6.07c-2.39,0.79-3.8,0.46-5.12-0.5
			c-4.65,8.25-10.14,17.84-16.95,24.18c-10.71,9.97-20.66,9.46-21.84,2.5c-0.9-5.33,2.65-11.72,10.37-20.46
			c7.62-8.63,15.29-17.64,21.15-27.62c-0.25-0.77-0.37-1.16-0.62-1.94c-2.21-6.88-8.32-5.86-15.42,0.56
			c-3.14,2.84-4.82,5.62-5.88,8.04c-1.2,2.72-1.65,5.87-2.28,9.97c-0.35,2.27-1.49,4.08-3.65,5.79c-2.74,2.17-6.73,2.71-7.18,0.1
			c-0.26-1.52,1.36-4.18,3.87-7.85c5.58-8.39,11.68-16.28,18-24.12c4.01-3.76,8.38-6.98,12.03-8.45c5.64-1.99,9.01-1.34,10.83,3.46
			c2.71,7.13,4.06,10.7,6.76,17.83c1.61,4.25,4.66,2.69,7.36-0.44c1.8-2.09,3.54-4.84,4.94-7.33c1.02,0.27,1.54,0.4,2.57,0.65
			C1353.29,617.06,1351.08,620.97,1346.54,628.66z M1327.33,616.24c-2.81,4.26-9.19,13.05-12.33,17.14
			c-5.16,6.8-8.21,11.63-7.36,15.51c1.22,5.56,8.04,2.78,13.01-1.79c4.04-3.71,9.13-10.72,11.53-15.74
			C1330.72,626.79,1328.79,620.79,1327.33,616.24z"/>
	</g>
</g>
</svg>
